# xmcd
#
# Track frame offsets:
# 150
# 22620
# 40588
# 61919
# 82806
# 105270
# 129232
# 147315
# 169519
# 187956
#
# Disc length: 2716 seconds
#
#
# Revision: 0
# Processed by: cddbd v1.5.2PL0 Copyright (c) Steve Scherf et al.
# Submitted via: FreeRIP 2.951 
#
DISCID=650a9a0a
DTITLE=Ömer Karaoðlu - Karayel
DYEAR=1900
DGENRE=
TTITLE0=Kuþlar
TTITLE1=Karayel
TTITLE2=Hal Gazeli
TTITLE3=Ararým
TTITLE4=Sultaným
TTITLE5=Neredesin?
TTITLE6=Anlaþma
TTITLE7=Yüreðim
TTITLE8=Götür Beni
TTITLE9=Leylican
EXTD=
EXTT0=
EXTT1=
EXTT2=
EXTT3=
EXTT4=
EXTT5=
EXTT6=
EXTT7=
EXTT8=
EXTT9=
PLAYORDER=
